<svg width="512" height="461" viewBox="0 0 512 461" fill="none" xmlns="http://www.w3.org/2000/svg">
<path d="M496.9 120.3C425.9 179.1 344.8 166.9 344.8 166.9C335.9 89.2 256 81.5 256 81.5C256 81.5 176.1 89.3 167.2 167C167.2 167 86.1998 179.2 15.0998 120.4C15.0998 120.4 -8.20019 173.7 135.5 218.1L154.9 247L129.4 292.5C111.6 322.5 125 326.9 125 326.9L153.9 354.6L189.4 284.1L196.1 222.5L243.8 234.7L234.9 284.1L256 296.9L277.1 284.1L268.2 234.7L315.9 222.5L322.6 284.1L358.1 354.6L387 326.9C387 326.9 400.3 322.5 382.6 292.5L357 246.8L376.4 217.9C520.2 173.6 496.9 120.3 496.9 120.3Z" fill="url(#paint0_linear_176_793)"/>
<path d="M298.2 301.2V361.1L272.7 370V341.1H256.1H239.5V370L214 361.1V301.2H190.7L164.1 361.1C164.1 361.1 239.2 424.8 242.9 428C246.6 431.2 250.5 430.4 250.5 430.4H256.2H261.9C261.9 430.4 265.8 431.1 269.5 428C273.2 424.8 348.3 361.1 348.3 361.1L321.7 301.2H298.2Z" fill="url(#paint1_linear_176_793)"/>
<defs>
<linearGradient id="paint0_linear_176_793" x1="22.1414" y1="80.6084" x2="490.462" y2="322.776" gradientUnits="userSpaceOnUse">
<stop offset="1e-05" stop-color="#0D1128"/>
<stop offset="1" stop-color="#798CB0"/>
</linearGradient>
<linearGradient id="paint1_linear_176_793" x1="159.091" y1="307.37" x2="366.358" y2="404.254" gradientUnits="userSpaceOnUse">
<stop offset="1e-05" stop-color="#0D1128"/>
<stop offset="1" stop-color="#798CB0"/>
</linearGradient>
</defs>
</svg>
